<svg width="202" height="51" viewBox="0 0 202 51" fill="none" xmlns="http://www.w3.org/2000/svg">
<mask id="path-1-inside-1_236_750" fill="white">
<path fill-rule="evenodd" clip-rule="evenodd" d="M189 9.52381L202 20V51H24L13 41.4762L0 31V2.15775e-06L178 0L189 9.52381Z"/>
</mask>
<path d="M202 20H203V19.5216L202.627 19.2214L202 20ZM189 9.52381L188.345 10.2798L188.359 10.2914L188.373 10.3024L189 9.52381ZM202 51V52H203V51H202ZM24 51L23.3454 51.756L23.6272 52H24V51ZM13 41.4762L13.6546 40.7202L13.6412 40.7086L13.6275 40.6976L13 41.4762ZM0 31H-1V31.4784L-0.627474 31.7786L0 31ZM0 2.15775e-06L-1.21222e-08 -0.999998H-1V2.15775e-06H0ZM178 0L178.655 -0.756013L178.373 -1H178V0ZM202.627 19.2214L189.627 8.74517L188.373 10.3024L201.373 20.7786L202.627 19.2214ZM203 51V20H201V51H203ZM24 52H202V50H24V52ZM12.3454 42.2322L23.3454 51.756L24.6546 50.244L13.6546 40.7202L12.3454 42.2322ZM-0.627474 31.7786L12.3725 42.2548L13.6275 40.6976L0.627474 30.2214L-0.627474 31.7786ZM-1 2.15775e-06V31H1V2.15775e-06H-1ZM178 -1L-1.21222e-08 -0.999998L1.21222e-08 1L178 1V-1ZM189.655 8.7678L178.655 -0.756013L177.345 0.756013L188.345 10.2798L189.655 8.7678Z" fill="#2D2926" mask="url(#path-1-inside-1_236_750)"/>
</svg>
