<svg width="176" height="16" viewBox="0 0 176 16" fill="none" xmlns="http://www.w3.org/2000/svg">
<path fill-rule="evenodd" clip-rule="evenodd" d="M144.046 3.0695V11.3192H138.66L145.25 16H138.872L127.125 7.65193H139.923V3.80833H123.848V15.9991H119.721V0.139227H139.923L144.046 3.0695ZM24.3234 11.3183V3.0695L20.1972 0.140155H0V15.9991H4.12242V3.8074H20.1963V7.65007H7.3989L19.1509 15.9991H25.5235L18.9345 11.3183H24.3234ZM151.962 15.9991H146.504L160.871 0L175.238 15.9991H169.774L167.914 13.9849H153.821L151.962 15.9991ZM160.866 5.88374L156.575 10.6518H165.157L160.866 5.88374ZM63.7675 0.1383V15.9991H84.2116L88.334 13.0697V3.0695L84.2116 0.140155H63.7665L63.7675 0.1383ZM84.2116 12.3309H67.8928V3.80276H84.2106V12.3328L84.2116 12.3309ZM35.86 15.9991V0.139227H56.305L60.4255 3.06857V13.0697L56.305 15.9991H35.86ZM39.9862 12.3309H56.305V3.80276H39.9862V12.3328V12.3309ZM89.3632 15.9991H94.8271L96.6823 13.9849H110.776L112.63 15.9991H118.094L103.726 0L89.3584 15.9991H89.3632ZM99.4404 10.6527L103.731 5.88374L108.022 10.6518H99.4404V10.6527ZM28.0708 0.1383H32.2455V15.9991H28.0708V0.1383Z" fill="#2D2926"/>
</svg>
