<svg width="433" height="51" viewBox="0 0 433 51" fill="none" xmlns="http://www.w3.org/2000/svg">
<path fill-rule="evenodd" clip-rule="evenodd" d="M420 9.52381L433 20V51H24L13 41.4762L0 31V2.15775e-06L409 0L420 9.52381Z" fill="#3B4C36"/>
<path d="M181.804 31.14C181.038 31.14 180.306 31.0327 179.606 30.818C178.906 30.594 178.35 30.3093 177.94 29.964L178.57 28.55C178.962 28.858 179.447 29.1147 180.026 29.32C180.604 29.5253 181.197 29.628 181.804 29.628C182.317 29.628 182.732 29.572 183.05 29.46C183.367 29.348 183.6 29.1987 183.75 29.012C183.899 28.816 183.974 28.5967 183.974 28.354C183.974 28.0553 183.866 27.8173 183.652 27.64C183.437 27.4533 183.157 27.3087 182.812 27.206C182.476 27.094 182.098 26.9913 181.678 26.898C181.267 26.8047 180.852 26.6973 180.432 26.576C180.021 26.4453 179.643 26.282 179.298 26.086C178.962 25.8807 178.686 25.61 178.472 25.274C178.257 24.938 178.15 24.5087 178.15 23.986C178.15 23.454 178.29 22.9687 178.57 22.53C178.859 22.082 179.293 21.7273 179.872 21.466C180.46 21.1953 181.202 21.06 182.098 21.06C182.686 21.06 183.269 21.1347 183.848 21.284C184.426 21.4333 184.93 21.648 185.36 21.928L184.786 23.342C184.347 23.0807 183.894 22.8893 183.428 22.768C182.961 22.6373 182.513 22.572 182.084 22.572C181.58 22.572 181.169 22.6327 180.852 22.754C180.544 22.8753 180.315 23.034 180.166 23.23C180.026 23.426 179.956 23.65 179.956 23.902C179.956 24.2007 180.058 24.4433 180.264 24.63C180.478 24.8073 180.754 24.9473 181.09 25.05C181.435 25.1527 181.818 25.2553 182.238 25.358C182.658 25.4513 183.073 25.5587 183.484 25.68C183.904 25.8013 184.282 25.96 184.618 26.156C184.963 26.352 185.238 26.618 185.444 26.954C185.658 27.29 185.766 27.7147 185.766 28.228C185.766 28.7507 185.621 29.236 185.332 29.684C185.052 30.1227 184.618 30.4773 184.03 30.748C183.442 31.0093 182.7 31.14 181.804 31.14ZM189.446 31.098C188.812 31.098 188.252 30.9813 187.766 30.748C187.281 30.5053 186.903 30.1413 186.632 29.656C186.362 29.1613 186.226 28.5407 186.226 27.794V23.524H187.976V27.556C187.976 28.228 188.126 28.732 188.424 29.068C188.732 29.3947 189.166 29.558 189.726 29.558C190.137 29.558 190.492 29.474 190.79 29.306C191.098 29.138 191.336 28.886 191.504 28.55C191.682 28.214 191.77 27.7987 191.77 27.304V23.524H193.52V31H191.854V28.984L192.148 29.6C191.896 30.0853 191.528 30.4587 191.042 30.72C190.557 30.972 190.025 31.098 189.446 31.098ZM198.836 31.098C198.201 31.098 197.636 30.958 197.142 30.678C196.647 30.398 196.255 29.978 195.966 29.418C195.686 28.8487 195.546 28.13 195.546 27.262C195.546 26.3847 195.69 25.666 195.98 25.106C196.278 24.546 196.675 24.1307 197.17 23.86C197.674 23.58 198.229 23.44 198.836 23.44C199.573 23.44 200.222 23.5987 200.782 23.916C201.351 24.2333 201.799 24.6767 202.126 25.246C202.462 25.8153 202.63 26.4873 202.63 27.262C202.63 28.0367 202.462 28.7087 202.126 29.278C201.799 29.8473 201.351 30.2953 200.782 30.622C200.222 30.9393 199.573 31.098 198.836 31.098ZM194.692 31V20.612H196.442V25.26L196.302 27.248L196.358 29.236V31H194.692ZM198.64 29.6C199.06 29.6 199.433 29.5067 199.76 29.32C200.096 29.1333 200.362 28.8627 200.558 28.508C200.754 28.1533 200.852 27.738 200.852 27.262C200.852 26.7767 200.754 26.3613 200.558 26.016C200.362 25.6613 200.096 25.3907 199.76 25.204C199.433 25.0173 199.06 24.924 198.64 24.924C198.22 24.924 197.842 25.0173 197.506 25.204C197.17 25.3907 196.904 25.6613 196.708 26.016C196.512 26.3613 196.414 26.7767 196.414 27.262C196.414 27.738 196.512 28.1533 196.708 28.508C196.904 28.8627 197.17 29.1333 197.506 29.32C197.842 29.5067 198.22 29.6 198.64 29.6ZM212.605 23.44C213.203 23.44 213.73 23.5567 214.187 23.79C214.654 24.0233 215.018 24.3827 215.279 24.868C215.541 25.344 215.671 25.96 215.671 26.716V31H213.921V26.94C213.921 26.2773 213.777 25.7827 213.487 25.456C213.198 25.1293 212.783 24.966 212.241 24.966C211.859 24.966 211.518 25.05 211.219 25.218C210.93 25.386 210.701 25.6333 210.533 25.96C210.375 26.2867 210.295 26.702 210.295 27.206V31H208.545V26.94C208.545 26.2773 208.401 25.7827 208.111 25.456C207.822 25.1293 207.407 24.966 206.865 24.966C206.483 24.966 206.142 25.05 205.843 25.218C205.554 25.386 205.325 25.6333 205.157 25.96C204.999 26.2867 204.919 26.702 204.919 27.206V31H203.169V23.524H204.835V25.512L204.541 24.924C204.793 24.4387 205.157 24.07 205.633 23.818C206.119 23.566 206.669 23.44 207.285 23.44C207.985 23.44 208.592 23.6127 209.105 23.958C209.628 24.3033 209.973 24.826 210.141 25.526L209.455 25.288C209.698 24.728 210.099 24.28 210.659 23.944C211.219 23.608 211.868 23.44 212.605 23.44ZM216.788 31V23.524H218.538V31H216.788ZM217.67 22.292C217.343 22.292 217.072 22.1893 216.858 21.984C216.652 21.7787 216.55 21.5313 216.55 21.242C216.55 20.9433 216.652 20.696 216.858 20.5C217.072 20.2947 217.343 20.192 217.67 20.192C217.996 20.192 218.262 20.29 218.468 20.486C218.682 20.6727 218.79 20.9107 218.79 21.2C218.79 21.508 218.687 21.7693 218.482 21.984C218.276 22.1893 218.006 22.292 217.67 22.292ZM222.528 31.098C221.707 31.098 221.072 30.888 220.624 30.468C220.176 30.0387 219.952 29.4087 219.952 28.578V21.872H221.702V28.536C221.702 28.8907 221.791 29.166 221.968 29.362C222.155 29.558 222.412 29.656 222.738 29.656C223.13 29.656 223.457 29.5533 223.718 29.348L224.208 30.594C224.003 30.762 223.751 30.888 223.452 30.972C223.154 31.056 222.846 31.098 222.528 31.098ZM218.72 24.98V23.58H223.704V24.98H218.72Z" fill="white"/>
<path d="M251.041 24.3938L246.324 19.6768L245.617 20.3838L250.233 25.0008H237.5V26.0008H250.235L245.617 30.6178L246.324 31.3248L251.041 26.6088C251.337 26.3128 251.5 25.9188 251.5 25.5008C251.5 25.0828 251.337 24.6888 251.041 24.3948V24.3938Z" fill="white"/>
</svg>
