<svg width="20" height="20" viewBox="0 0 20 20" fill="none" xmlns="http://www.w3.org/2000/svg">
<g clip-path="url(#clip0_469_200)">
<path d="M0 12.2581V14.9032C0 16 0.870968 16.7742 1.93548 16.7742H18.0645C19.129 16.7742 20 16 20 14.9032V12.2581H0Z" fill="#4C4B4B"/>
<path d="M18.0645 3.22583H1.93548C0.870968 3.22583 0 4.00002 0 5.0968V7.74196H20V5.0968C20 4.00002 19.129 3.22583 18.0645 3.22583Z" fill="#49A948"/>
<path d="M20 7.74194H0V12.2581H20V7.74194Z" fill="white"/>
<path d="M18 16.7742C19.0646 16.7742 20 16 20 14.9032V12.2581H12.7097L18 16.7742Z" fill="#3F3F3F"/>
<path d="M18.0645 3.22583H1.93542L7.29026 7.74196H19.9999V5.0968C19.9999 4.00002 19.129 3.22583 18.0645 3.22583Z" fill="#369933"/>
<path d="M12.7419 12.2581H20V7.74194H7.25806L12.7419 12.2581Z" fill="#CFE5E2"/>
<path d="M18.0645 3.22583H1.93542L16.8709 7.74196H19.9999V5.0968C19.9999 4.00002 19.129 3.22583 18.0645 3.22583Z" fill="#1C8417"/>
<path d="M20 8.64517V7.74194H16.7097L20 8.64517Z" fill="#BAD3CF"/>
<path d="M20 14.871C20 16.0323 19.129 16.7742 18.0645 16.7742H1.93548C0.870968 16.7742 0 15.9355 0 14.8387" fill="#232222"/>
<path d="M4.83871 3.22583H1.93548C0.870968 3.22583 0 4.00002 0 5.0968V7.67744V7.7097V12.3226V12.3549V14.9355C0 16 0.870968 16.7742 1.93548 16.7742H4.83871V3.22583Z" fill="#E73B36"/>
<path d="M4.83871 7.74197H0V7.70972V12.2904V12.2581H4.83871V7.74197Z" fill="#DB2C2C"/>
<path d="M0 12.2581V12.3548V14.9355C0 16 0.870968 16.7742 1.93548 16.7742H4.83871V12.2581H0Z" fill="#CC2525"/>
<path d="M0 14.8387C0 16.1291 0.870968 16.7742 1.93548 16.7742H4.83871V14.8387H0Z" fill="#B70808"/>
<path d="M4.83865 3.22583H1.93542L4.83865 5.67744V3.22583Z" fill="#CC2525"/>
<path d="M4.83865 3.22583H1.93542L4.83865 4.03228V3.22583Z" fill="#B70808"/>
</g>
<defs>
<clipPath id="clip0_469_200">
<rect width="20" height="20" fill="white"/>
</clipPath>
</defs>
</svg>
