<svg width="20" height="20" viewBox="0 0 20 20" fill="none" xmlns="http://www.w3.org/2000/svg">
<g clip-path="url(#clip0_471_622)">
<path d="M20 14.9033C20 16 19.129 16.871 18.0645 16.871H1.93548C0.870968 16.871 0 16 0 14.9033V5.09682C0 4.00004 0.870968 3.33069 1.93548 3.33069H18.0645C19.129 3.33069 20 4.00004 20 5.09682V14.9033Z" fill="white"/>
<path d="M18.0645 3.12903H1.93549L18.0645 16.871C19.129 16.871 20 16 20 14.9032V5.09677C20 4 19.129 3.12903 18.0645 3.12903Z" fill="#CCE4E5"/>
<path d="M18.0645 3.12903H1.93549L20 8.67742V5.09677C20 4 19.129 3.12903 18.0645 3.12903Z" fill="#AED3D3"/>
<path d="M0.197578 15.7742C0.499998 16.3951 1.1129 16.8306 1.83064 16.8669C1.86693 16.8669 1.89919 16.8709 1.93548 16.8709H18.0766C18.0766 16.8709 18.2177 16.8589 18.2621 16.8427C18.3306 16.8185 18.3387 16.7621 18.2863 16.7177L18.2702 16.7016L17.1774 15.7701H0.197578V15.7742Z" fill="#B22234"/>
<path d="M4.875 5.29028H0V6.33867H6.10484L4.875 5.29028Z" fill="#B22234"/>
<path d="M7.33468 7.38708H0V8.43547H8.56855L7.33468 7.38708Z" fill="#B22234"/>
<path d="M9.79032 9.48389H0V10.5484H11.0161L9.79032 9.48389Z" fill="#B22234"/>
<path d="M12.2419 11.5806H0V12.6451H13.5L12.2419 11.5806Z" fill="#B22234"/>
<path d="M15.0565 13.9637L14.7177 13.6774H0V14.7419H15.9516L15.0565 13.9637Z" fill="#B22234"/>
<path d="M9.6129 5.29028H4.47177L5.70161 6.33867H13.0323L9.6129 5.29028Z" fill="#8C1126"/>
<path d="M8.16532 8.43547H19.6976L16.2823 7.38708H6.93145L8.16532 8.43547Z" fill="#8C1126"/>
<path d="M10.6452 10.5484H20V9.48389H9.39516L10.6452 10.5484Z" fill="#8C1126"/>
<path d="M13.1048 12.6451H20V11.5806H11.8548L13.1048 12.6451Z" fill="#8C1126"/>
<path d="M14.6532 13.9637L15.5645 14.7419H20V13.6774H14.3226L14.6532 13.9637Z" fill="#8C1126"/>
<path d="M8.97177 5.29028L11.5323 6.07657L12.3871 6.33867H20V5.29028H8.97177Z" fill="#5B0218"/>
<path d="M15.8064 7.38708L19.2258 8.43547H20V7.38708H15.8064Z" fill="#5B0218"/>
<path d="M19.6129 3.91532C19.5564 3.83871 19.496 3.77016 19.4314 3.70161C19.1048 3.37096 18.6613 3.15725 18.1694 3.13306C18.1371 3.13306 18.1008 3.12903 18.0685 3.12903H1.93548C1.40726 3.12903 0.907256 3.36693 0.548385 3.72177C0.407256 3.87096 0.286288 4.04032 0.197578 4.2258H3.22177H5.50403H19.7984C19.75 4.11693 19.6855 4.01209 19.6129 3.91532Z" fill="#5B0218"/>
<path d="M19.8024 15.7742H16.7782L18.0645 16.8709C18.8226 16.8709 19.4839 16.4274 19.8024 15.7742Z" fill="#8C1126"/>
<path d="M0 5.09677V10.5161H8.67742V3.12903H1.80645C0.806452 3.19354 0 4.03225 0 5.09677Z" fill="#3C3B6E"/>
<path d="M8.67742 8.87096V3.12903H1.93549L8.67742 8.87096Z" fill="#1E1E44"/>
<path d="M8.67742 5.19354V3.12903H1.93549L8.67742 5.19354Z" fill="black"/>
<path d="M2.45161 3.87102L2.58065 3.45166L2.74194 3.87102H2.45161Z" fill="white"/>
<path d="M4.19355 3.87102L4.32258 3.45166L4.45161 3.87102H4.19355Z" fill="white"/>
<path d="M5.90323 3.87102L6.06452 3.45166L6.19355 3.87102H5.90323Z" fill="white"/>
<path d="M7.64516 3.87102L7.7742 3.45166L7.93549 3.87102H7.64516Z" fill="white"/>
<path d="M1.58064 4.61296L1.74193 4.1936L1.87097 4.61296H1.58064Z" fill="white"/>
<path d="M3.32258 4.61296L3.45161 4.1936L3.6129 4.61296H3.32258Z" fill="white"/>
<path d="M5.06451 4.61296L5.19355 4.1936L5.32258 4.61296H5.06451Z" fill="white"/>
<path d="M6.77419 4.61296L6.90322 4.1936L7.06452 4.61296H6.77419Z" fill="white"/>
<path d="M0.741936 5.3549L0.870968 4.93555L1 5.3549H0.741936Z" fill="white"/>
<path d="M2.45161 5.3549L2.58065 4.93555L2.74194 5.3549H2.45161Z" fill="white"/>
<path d="M4.19355 5.3549L4.32258 4.93555L4.45161 5.3549H4.19355Z" fill="white"/>
<path d="M5.90323 5.3549L6.06452 4.93555L6.19355 5.3549H5.90323Z" fill="white"/>
<path d="M7.64516 5.3549L7.7742 4.93555L7.93549 5.3549H7.64516Z" fill="white"/>
<path d="M1.6129 6.09684L1.74193 5.67749L1.90322 6.09684H1.6129Z" fill="white"/>
<path d="M3.35484 6.09684L3.48387 5.67749L3.6129 6.09684H3.35484Z" fill="white"/>
<path d="M5.06451 6.09684L5.2258 5.67749L5.35484 6.09684H5.06451Z" fill="white"/>
<path d="M6.80645 6.09684L6.93548 5.67749L7.06451 6.09684H6.80645Z" fill="white"/>
<path d="M0.741936 6.80644L0.903226 6.38708L1.03226 6.80644H0.741936Z" fill="white"/>
<path d="M2.48387 6.80644L2.6129 6.38708L2.77419 6.80644H2.48387Z" fill="white"/>
<path d="M4.22581 6.80644L4.35484 6.38708L4.48387 6.80644H4.22581Z" fill="white"/>
<path d="M5.93549 6.80644L6.09678 6.38708L6.22581 6.80644H5.93549Z" fill="white"/>
<path d="M7.67742 6.80644L7.80645 6.38708L7.93549 6.80644H7.67742Z" fill="white"/>
<path d="M1.6129 7.54838L1.74193 7.12903L1.90322 7.54838H1.6129Z" fill="white"/>
<path d="M3.35484 7.54838L3.48387 7.12903L3.6129 7.54838H3.35484Z" fill="white"/>
<path d="M5.06451 7.54838L5.2258 7.12903L5.35484 7.54838H5.06451Z" fill="white"/>
<path d="M6.80645 7.54838L6.93548 7.12903L7.09677 7.54838H6.80645Z" fill="white"/>
<path d="M0.774193 8.29033L0.903225 7.87097L1.03226 8.29033H0.774193Z" fill="white"/>
<path d="M2.51613 8.29033L2.64516 7.87097L2.77419 8.29033H2.51613Z" fill="white"/>
<path d="M4.22581 8.29033L4.35484 7.87097L4.51613 8.29033H4.22581Z" fill="white"/>
<path d="M5.96774 8.29033L6.09678 7.87097L6.22581 8.29033H5.96774Z" fill="white"/>
<path d="M7.67742 8.29033L7.83871 7.87097L7.96774 8.29033H7.67742Z" fill="white"/>
<path d="M1.6129 9.0323L1.74193 8.58069L1.90322 9.0323H1.6129Z" fill="white"/>
<path d="M3.35484 9.0323L3.48387 8.58069L3.6129 9.0323H3.35484Z" fill="white"/>
<path d="M5.06451 9.0323L5.2258 8.58069L5.35484 9.0323H5.06451Z" fill="white"/>
<path d="M6.80645 9.0323L6.93548 8.58069L7.06451 9.0323H6.80645Z" fill="white"/>
<path d="M0.741936 9.74199L0.903226 9.32263L1.03226 9.74199H0.741936Z" fill="white"/>
<path d="M2.48387 9.74199L2.6129 9.32263L2.74194 9.74199H2.48387Z" fill="white"/>
<path d="M4.19355 9.74199L4.35484 9.32263L4.48387 9.74199H4.19355Z" fill="white"/>
<path d="M5.93549 9.74199L6.06452 9.32263L6.22581 9.74199H5.93549Z" fill="white"/>
<path d="M7.67742 9.74199L7.80645 9.32263L7.93549 9.74199H7.67742Z" fill="white"/>
</g>
<defs>
<clipPath id="clip0_471_622">
<rect width="20" height="20" fill="white"/>
</clipPath>
</defs>
</svg>
